# AST/ASF file generated using VICON BodyLanguage
# -----------------------------------------------
:version 1.10
:name VICON
:units
  mass 1.0
  length 0.45
  angle deg
:documentation
   .ast/.asf automatically generated from VICON data using
   VICON BodyBuilder and BodyLanguage model FoxedUp or BRILLIANT.MOD
:root
   order TX TY TZ RX RY RZ
   axis XYZ
   position 0 0 0  
   orientation 0 0 0 
:bonedata
  begin
     id 1 
     name lhipjoint
     direction 0.547975 -0.797114 0.253638 
     length 2.36201 
     axis 0 0 0  XYZ
  end
  begin
     id 2 
     name lfemur
     direction 0.34202 -0.939693 0  
     length 7.69075  
     axis 0 0 20  XYZ
    dof rx ry rz
    limits (-160.0 20.0)
           (-70.0 70.0)
           (-60.0 70.0)
  end
  begin
     id 3 
     name ltibia
     direction 0.34202 -0.939693 0   
     length 7.91399   
     axis 0 0 20   XYZ
    dof rx
    limits (-10.0 170.0)
  end
  begin
     id 4 
     name lfoot
     direction 0.0705293 -0.193778 0.978507   
     length 2.13618   
     axis -90 7.62852e-016 20   XYZ
    dof rx rz
    limits (-45.0 90.0)
           (-70.0 20.0)
  end
  begin
     id 5 
     name ltoes
     direction 1.53592e-011 -4.21925e-011 1   
     length 1.07518   
     axis -90 7.62852e-016 20   XYZ
    dof rx
    limits (-90.0 20.0)
  end
  begin
     id 6 
     name rhipjoint
     direction -0.57 -0.782963 0.249136   
     length 2.4047  
     axis 0 0 0  XYZ 
  end
  begin
     id 7 
     name rfemur
     direction -0.34202 -0.939693 0   
     length 7.51486   
     axis 0 0 -20   XYZ
    dof rx ry rz
    limits (-160.0 20.0)
           (-70.0 70.0)
           (-70.0 60.0)
  end
  begin
     id 8 
     name rtibia
     direction -0.34202 -0.939693 0   
     length 8.08317   
     axis 0 0 -20   XYZ
    dof rx
    limits (-10.0 170.0)
 end
 begin
     id 9 
     name rfoot
     direction -0.104954 -0.281256 0.953876   
     length 2.30343  
     axis -90 -7.62852e-016 -20   XYZ
    dof rx rz
    limits (-45.0 90.0)
           (-20.0 70.0)
  end
  begin
     id 10 
     name rtoes
     direction -1.53556e-011 -4.21922e-011 1   
     length 1.14803   
     axis -90 -7.62852e-016 -20   XYZ
    dof rx
    limits (-90.0 20.0)
  end
  begin
     id 11 
     name lowerback
     direction -0.0152855 0.99353 -0.11254   
     length 2.05311   
     axis 0 0 0   XYZ
    dof rx ry rz
    limits (-20.0 45.0)
           (-30.0 30.0)
           (-30.0 30.0)
  end
  begin
     id 12 
     name upperback
     direction -0.00157509 0.999443 -0.033332   
     length 2.06353   
     axis 0 0 0   XYZ
    dof rx ry rz
    limits (-20.0 45.0)
           (-30.0 30.0)
           (-30.0 30.0)
  end
  begin
     id 13 
     name thorax
     direction 0.00577788 0.999804 0.0189484   
     length 2.08472   
     axis 0 0 0   XYZ
    dof rx ry rz
    limits (-20.0 45.0)
           (-30.0 30.0)
           (-30.0 30.0)
  end
  begin
     id 14 
     name lowerneck
     direction -1.09301e-005 0.994719 0.10264   
     length 1.76249   
     axis 0 0 0   XYZ
    dof rx ry rz
    limits (-20.0 45.0)
           (-30.0 30.0)
           (-30.0 30.0)
  end
  begin
     id 15 
     name upperneck
     direction 0.0495018 0.988526 -0.142706   
     length 1.77897   
     axis 0 0 0   XYZ
    dof rx ry rz
    limits (-20.0 45.0)
           (-30.0 30.0)
           (-30.0 30.0)
  end
  begin
     id 16
     name head
     direction 0.0142736 0.998114 -0.0597101  
     length 1.78934  
     axis 0 0 0   XYZ
    dof rx ry rz
    limits (-20.0 45.0)
           (-30.0 30.0)
           (-30.0 30.0)
  end
  begin
     id 17 
     name lclavicle
     direction 0.918111 0.396107 -0.0130883  
     length 3.37276  
     axis 0 0 0   XYZ
    dof ry rz
    limits (-20.0 10.0)
           (0.0 20.0)
  end
  begin
     id 18 
     name lhumerus
     direction 1 -4.48975e-011 -3.26108e-027   
     length 5.34298   
     axis 180 -30 -90   XYZ
    dof rx ry rz
    limits (-60.0 90.0)
           (-90.0 90.0)
           (-90.0 90.0)
  end
  begin
     id 19
     name lradius
     direction 1 -4.48964e-011 -8.84413e-028   
     length 3.67262   
     axis 180 -30 -90   XYZ
    dof rx
    limits (-10.0 170.0)
  end
  begin
     id 20
     name lwrist
     direction 1 -4.48991e-011 -1.24264e-027   
     length 1.83631   
     axis -2.17013e-015 90 90   XYZ
    dof ry
    limits (-180.0 0.0)
 end
  begin
     id 21 
     name lhand
     direction 1 -4.48855e-011 -2.48528e-027   
     length 0.599298   
     axis 1.58582e-015 90 90   XYZ
    dof rx rz
    limits (-90.0 90.0)
           (-45.0 45.0)
  end
  begin
     id 22 
     name lfingers
     direction 1 -4.48811e-011 -4.97056e-027   
     length 0.48317   
     axis 3.17164e-015 90 90   XYZ
    dof rx
    limits (0.0 90.0)
  end
  begin
     id 23
     name lthumb
     direction 0.707107 -6.34882e-011 0.707107   
     length 0.693738   
     axis -90 45 2.85299e-015   XYZ
    dof rx rz
    limits (-45.0 45.0)
           (-45.0 45.0)
  end
  begin
     id 24 
     name rclavicle
     direction -0.920511 0.384752 -0.0680135   
     length 3.43787  
     axis 0 0 0   XYZ 
    dof ry rz
    limits (-10.0 20.0)
           (-20.0 0.0)
  end
  begin
     id 25 
     name rhumerus
     direction -0.999976 -0.00330524 0.00603274  
     length 5.5498   
     axis 180 30 90   XYZ
    dof rx ry rz
    limits (-90.0 60.0)
           (-90.0 90.0)
           (-90.0 90.0)
  end
  begin
     id 26 
     name rradius
     direction -1 -4.48967e-011 8.62438e-027   
     length 3.69401   
     axis 180 30 90   XYZ
    dof rx
    limits (-10.0 170.0)
  end
  begin
     id 27 
     name rwrist
     direction -1 -4.4897e-011 9.54866e-027   
     length 1.84701   
     axis -7.69462e-015 -90 -90   XYZ
    dof ry
    limits (-180.0 0.0)
  end
  begin
     id 28
     name rhand
     direction -1 -4.48982e-011 1.90973e-026   
     length 0.638113   
     axis -1.21857e-014 -90 -90   XYZ
    dof rx rz
    limits (-90.0 90.0)
           (-45.0 45.0)
  end
  begin
     id 29
     name rfingers
     direction -1 -4.48936e-011 3.81946e-026   
     length 0.514463   
     axis -2.43714e-014 -90 -90   XYZ
    dof rx
    limits (0.0 90.0)
  end
  begin
     id 30
     name rthumb
     direction -0.707107 -6.34942e-011 0.707107   
     length 0.738669   
     axis -90 -45 -2.85299e-015   XYZ
    dof rx rz
    limits (-45.0 45.0)
           (-45.0 45.0)
  end
:hierarchy
  begin
    root lhipjoint rhipjoint lowerback
    lhipjoint lfemur
    lfemur ltibia
    ltibia lfoot
    lfoot ltoes
    rhipjoint rfemur
    rfemur rtibia
    rtibia rfoot
    rfoot rtoes
    lowerback upperback
    upperback thorax
    thorax lowerneck lclavicle rclavicle
    lowerneck upperneck
    upperneck head
    lclavicle lhumerus
    lhumerus lradius
    lradius lwrist
    lwrist lhand lthumb
    lhand lfingers
    rclavicle rhumerus
    rhumerus rradius
    rradius rwrist
    rwrist rhand rthumb
    rhand rfingers
  end

#!OML:ASF F:\twosubjects\two\Thursday\Session 1\Rory.ASF
:FULLY-SPECIFIED
:DEGREES
16
root 23.7888 18.3627 -5.87069 0.207882 0.787253 1.16921
lowerback 1.50068 -3.37431 -3.11347
upperback 2.11909 -4.50866 -0.585488
thorax 1.52871 -2.29579 1.13528
lowerneck 7.22919 -16.7477 -14.6861
upperneck 5.3609 -24.807 20.1953
head 4.84958 -12.5456 7.14227
rclavicle 1.51076e-014 -1.15295e-014
rhumerus -27.9079 -27.6627 -76.738
rradius 18.03
rwrist 40.9627
rhand -25.1924 19.0246
rfingers 7.12502
rthumb 1.32577 -10.9511
lclavicle 1.51076e-014 -1.15295e-014
lhumerus -30.2508 6.39511 79.4319
lradius 36.2692
lwrist -12.3912
lhand -9.21664 31.5903
lfingers 7.12502
lthumb 16.7379 60.8888
rfemur -18.7226 6.85975 22.3203
rtibia 30.1656
rfoot -10.1502 -5.50074
rtoes -4.7702
lfemur 1.69875 1.06264 -18.1608
ltibia 47.4464
lfoot 17.1295 -7.90233
ltoes -16.2742
17
root 23.7737 18.3808 -5.72109 0.213 0.74247 0.772137
lowerback 1.33611 -3.2255 -2.73757
upperback 2.1226 -4.30362 -0.527181
thorax 1.59136 -2.18892 0.978016
lowerneck 7.19772 -16.8186 -14.734
upperneck 5.68377 -24.9706 20.2648
head 4.9979 -12.6137 7.13249
rclavicle -2.08724e-015 -2.38542e-014
rhumerus -27.0084 -28.0073 -76.9523
rradius 18.0062
rwrist 40.6741
rhand -24.861 19.2975
rfingers 7.12502
rthumb 1.64578 -10.6759
lclavicle -2.08724e-015 -2.38542e-014
lhumerus -30.0227 6.10137 79.6568
lradius 36.2969
lwrist -12.6595
lhand -8.62073 30.9824
lfingers 7.12502
lthumb 17.3115 60.2314
rfemur -17.9196 6.85195 22.9201
rtibia 29.8672
rfoot -10.2763 -5.68207
rtoes -6.75712
lfemur 0.252063 1.29006 -17.6549
ltibia 49.8751
lfoot 15.6284 -7.59209
ltoes -20.1809
18
root 23.7693 18.4058 -5.5731 0.152329 0.790759 0.986346
lowerback 1.25352 -3.06315 -2.87214
upperback 2.15641 -4.08221 -0.672994
thorax 1.66284 -2.08004 0.899074
lowerneck 6.9945 -16.9027 -14.6355
upperneck 6.1142 -25.1321 20.2332
head 5.1744 -12.6644 7.05567
rclavicle 4.64908e-014 -1.78906e-014
rhumerus -26.0715 -29.1062 -76.9503
rradius 17.7582
rwrist 40.9308
rhand -24.6436 17.9119
rfingers 7.12502
rthumb 1.85574 -12.0598
lclavicle 4.64908e-014 -1.78906e-014
lhumerus -29.5803 5.59037 79.968
lradius 36.1628
lwrist -12.9172
lhand -5.22206 32.5107
lfingers 7.12502
lthumb 20.58 61.4398
rfemur -17.0695 6.7358 22.7605
rtibia 29.5501
rfoot -8.88337 -5.64646
rtoes -13.4588
lfemur -1.11081 1.34293 -17.9009
ltibia 52.0781
lfoot 13.5723 -6.74818
ltoes -21.5063
19
root 23.7619 18.423 -5.43518 0.125129 0.732762 0.987196
lowerback 1.40389 -2.89001 -2.76593
upperback 2.0842 -3.85731 -0.722419
thorax 1.48506 -1.96304 0.802994
lowerneck 6.63705 -16.9764 -14.8033
upperneck 6.76276 -25.3204 20.1866
head 5.48056 -12.7161 6.97932
rclavicle 4.69132e-014 -2.78299e-015
rhumerus -25.1872 -29.8423 -76.988
rradius 17.4602
rwrist 40.8307
rhand -24.8568 16.462
rfingers 7.12502
rthumb 1.64991 -13.5114
lclavicle 4.69132e-014 -2.78299e-015
lhumerus -29.305 4.8827 80.3394
lradius 36.2479
lwrist -12.8637
lhand -8.03057 30.4638
lfingers 7.12502
lthumb 17.8794 59.662
rfemur -16.3983 6.59047 22.8623
rtibia 29.1678
rfoot -11.2015 -5.49718
rtoes -4.5565
lfemur -2.52104 1.52357 -17.884
ltibia 54.0943
lfoot 11.3188 -5.81959
ltoes -21.1439
20
root 23.7497 18.4376 -5.29444 0.219123 0.488806 0.584487
lowerback 1.42026 -2.71463 -2.20879
upperback 2.01623 -3.6227 -0.75813
thorax 1.35979 -1.83587 0.462136
lowerneck 6.14032 -17.0445 -14.6112
upperneck 7.34482 -25.4457 20.0591
head 5.72109 -12.7244 6.83506
rclavicle 3.67006e-014 -9.54166e-015
rhumerus -24.1886 -30.0241 -77.4824
rradius 17.3266
rwrist 40.7143
rhand -25.1425 16.6239
rfingers 7.12502
rthumb 1.37394 -13.3514
lclavicle 3.67006e-014 -9.54166e-015
lhumerus -29.1396 4.15726 80.4595
lradius 36.5828
lwrist -12.9095
lhand -8.49372 29.9371
lfingers 7.12502
lthumb 17.4337 59.1753
rfemur -15.8806 6.34217 23.4468
rtibia 28.8455
rfoot -9.14091 -5.27362
rtoes -16.4272
lfemur -4.09753 1.97062 -17.3224
ltibia 55.8938
lfoot 9.36728 -4.93929
ltoes -18.5935
21
root 23.7379 18.4508 -5.14971 0.195345 0.258474 0.398627
lowerback 1.35 -2.55763 -1.92788
upperback 2.00904 -3.4095 -0.860662
thorax 1.36328 -1.72459 0.198741
lowerneck 6.29205 -17.0144 -14.347
upperneck 7.23369 -25.3962 20.139
head 5.62986 -12.7075 6.85545
rclavicle 1.11071e-014 1.70955e-014
rhumerus -23.2772 -29.874 -78.1138
rradius 17.504
rwrist 40.8413
rhand -25.3613 17.9155
rfingers 7.12502
rthumb 1.16258 -12.0611
lclavicle 1.11071e-014 1.70955e-014
lhumerus -28.9558 3.80228 80.5059
lradius 36.6923
lwrist -13.2308
lhand -7.94109 30.4671
lfingers 7.12502
lthumb 17.9655 59.6573
rfemur -15.1128 6.08474 23.7714
rtibia 28.5751
rfoot -11.655 -4.86541
rtoes -6.68447
lfemur -5.55235 2.42935 -16.958
ltibia 57.4677
lfoot 7.66394 -4.17945
ltoes -15.709
22
root 23.7255 18.4682 -5.00812 0.0308097 0.0287027 0.472285
lowerback 1.3241 -2.36349 -1.99986
upperback 2.05993 -3.14809 -0.990842
thorax 1.42185 -1.59457 0.103517
lowerneck 6.86056 -16.9781 -14.4286
upperneck 6.84601 -25.3842 20.5051
head 5.47776 -12.7485 7.04435
rclavicle 1.91579e-014 -7.95139e-015
rhumerus -22.3945 -29.4014 -78.7684
rradius 17.7266
rwrist 40.6023
rhand -25.5954 18.1818
rfingers 7.12502
rthumb 0.936505 -11.7958
lclavicle 1.91579e-014 -7.95139e-015
lhumerus -28.8071 3.42898 80.6252
lradius 36.8434
lwrist -13.3942
lhand -7.96832 30.1379
lfingers 7.12502
lthumb 17.9393 59.3305
rfemur -14.301 6.3524 23.7443
rtibia 28.3119
rfoot -10.1796 -4.64589
rtoes -13.2632
lfemur -6.66619 2.98878 -16.9262
ltibia 58.8609
lfoot 5.67938 -3.40009
ltoes -14.713
23
root 23.712 18.4901 -4.86473 -0.079608 -0.249789 0.250339
lowerback 1.2562 -2.13299 -1.72468
upperback 2.19264 -2.83488 -1.0884
thorax 1.57208 -1.43464 -0.155044
lowerneck 6.63985 -17.0758 -14.4133
upperneck 7.13077 -25.5771 20.6725
head 5.65921 -12.8158 7.0327
rclavicle 2.95692e-014 -1.27222e-014
rhumerus -21.1722 -27.6205 -79.8858
rradius 17.9564
rwrist 38.9545
rhand -25.688 17.258
rfingers 7.12502
rthumb 0.847112 -12.72
lclavicle 2.95692e-014 -1.27222e-014
lhumerus -28.5506 2.93569 80.6612
lradius 37.1445
lwrist -13.5674
lhand -8.58828 28.9031
lfingers 7.12502
lthumb 17.3427 58.1493
rfemur -13.7421 6.82125 24.0535
rtibia 28.1358
rfoot -10.087 -4.45539
rtoes -8.384
lfemur -7.63694 3.85381 -16.5621
ltibia 60.1624
lfoot 3.35924 -2.80389
ltoes -17.5538
24
root 23.7021 18.5032 -4.72774 -0.000179675 -0.553271 -0.296311
lowerback 1.22115 -1.86896 -1.03154
upperback 2.24991 -2.47999 -1.11372
thorax 1.61545 -1.24643 -0.568779
lowerneck 6.02476 -17.2499 -14.2111
upperneck 7.61763 -25.8411 20.6327
head 5.9277 -12.8817 6.87966
rclavicle 1.76918e-014 7.15625e-015
rhumerus -20.0989 -25.5896 -80.9401
rradius 18.469
rwrist 37.0043
rhand -25.5508 17.3795
rfingers 7.12502
rthumb 0.979551 -12.598
lclavicle 1.76918e-014 7.15625e-015
lhumerus -28.2167 2.63328 80.6859
lradius 37.3796
lwrist -14.0816
lhand -9.30061 28.0308
lfingers 7.12502
lthumb 16.6571 57.3361
rfemur -13.3418 7.0056 24.7453
rtibia 28.0284
rfoot -10.1534 -4.25079
rtoes -9.32157
lfemur -8.91382 4.65474 -15.8548
ltibia 61.4139
lfoot 1.29621 -2.17667
ltoes -19.5455
25
root 23.6895 18.5169 -4.60397 0.121642 -0.954448 -0.727257
lowerback 1.30762 -1.99572 -0.817072
upperback 1.81587 -2.65853 -0.78502
thorax 1.12696 -1.33385 -0.338537
lowerneck 7.03203 -16.6646 -15.3212
upperneck 7.66608 -25.2086 20.7433
head 5.81842 -12.6666 7.2517
rclavicle 2.13694e-015 -3.97569e-015
rhumerus -19.7859 -23.4893 -81.3324
rradius 18.8492
rwrist 36.4096
rhand -25.5685 18.9262
rfingers 7.12502
rthumb 0.962504 -11.0514
lclavicle 2.13694e-015 -3.97569e-015
lhumerus -29.3202 3.84999 80.6459
lradius 37.9479
lwrist -14.7706
lhand -9.70824 27.4633
lfingers 7.12502
lthumb 16.2646 56.8011
rfemur -12.9974 7.46503 25.2721
rtibia 27.8767
rfoot -10.3696 -4.01673
rtoes -6.37926
lfemur -10.3844 5.30345 -15.3331
ltibia 62.5301
lfoot -0.368033 -1.61363
ltoes -19.7506
26
root 23.6758 18.5205 -4.48273 0.255456 -1.48289 -1.06011
lowerback 1.30561 -1.49259 -0.241489
upperback 1.98442 -1.98117 -1.07351
thorax 1.27077 -0.985831 -0.96016
lowerneck 6.52835 -17.0455 -14.3609
upperneck 7.4821 -25.6139 20.8307
head 5.80878 -12.8122 7.05037
rclavicle -6.41081e-015 1.59028e-014
rhumerus -18.5652 -24.7001 -82.0034
rradius 18.8943
rwrist 36.8642
rhand -26.0776 19.9443
rfingers 7.12502
rthumb 0.470786 -10.0349
lclavicle -6.41081e-015 1.59028e-014
lhumerus -28.7452 2.6865 80.5909
lradius 38.3327
lwrist -14.9877
lhand -9.68751 27.0195
lfingers 7.12502
lthumb 16.2846 56.3557
rfemur -12.6638 7.71428 25.7771
rtibia 27.7438
rfoot -11.7059 -4.13852
rtoes -2.08387
lfemur -11.9007 6.00213 -14.9344
ltibia 63.4704
lfoot -1.7104 -1.0563
ltoes -20.6996
